<?xml version="1.0" encoding="utf-8"?>
<!-- Generator: Adobe Illustrator 16.0.0, SVG Export Plug-In . SVG Version: 6.00 Build 0)  -->
<!DOCTYPE svg PUBLIC "-//W3C//DTD SVG 1.1//EN" "http://www.w3.org/Graphics/SVG/1.1/DTD/svg11.dtd">
<svg version="1.1" id="Layer_1" xmlns="http://www.w3.org/2000/svg" xmlns:xlink="http://www.w3.org/1999/xlink" x="0px" y="0px"
	 width="60.728px" height="58.024px" viewBox="0 0 60.728 58.024" enable-background="new 0 0 60.728 58.024" xml:space="preserve">
<g>
	<g>
		<path fill="#231F20" d="M44.844,0.036l-7.51-0.012c-8.439,0-13.891,5.599-13.891,14.256v6.578h-7.555
			c-0.662,0-1.184,0.531-1.184,1.174v9.539c0,0.651,0.521,1.179,1.184,1.179h7.555v24.025c0,0.666,0.521,1.193,1.178,1.193h9.863
			c0.645,0,1.176-0.527,1.176-1.193V32.751h8.83c0.652,0,1.176-0.528,1.176-1.179l0.016-9.539c0-0.304-0.127-0.605-0.346-0.829
			c-0.23-0.218-0.523-0.345-0.846-0.345h-8.83v-5.578c0-2.673,0.633-4.03,4.119-4.03l5.064-0.009c0.652,0,1.18-0.522,1.18-1.186
			V1.219C46.023,0.575,45.496,0.036,44.844,0.036z"/>
	</g>
</g>
</svg>
