<?xml version="1.0" encoding="utf-8"?>
<!-- Generator: Adobe Illustrator 22.1.0, SVG Export Plug-In . SVG Version: 6.00 Build 0)  -->
<svg version="1.1" id="Layer_1" xmlns="http://www.w3.org/2000/svg" xmlns:xlink="http://www.w3.org/1999/xlink" x="0px" y="0px"
	 viewBox="0 0 144 77.3208008" style="enable-background:new 0 0 144 77.3208008;" xml:space="preserve">
<style type="text/css">
	.st0{fill:#375737;}
</style>
<g>
	<path class="st0" d="M88.8960648,2.7181025c-0.0579376-0.5195804-0.2853012-1.0391604-0.6725998-1.4134777
		c-0.3769073-0.3855562-0.8714218-0.6146632-1.3771744-0.7417749c-1.0425949-0.2584445-2.1024323,0.0432676-3.007576,0.4339948
		c-0.9060287,0.4054487-1.7549744,0.9120486-2.5494614,1.505975c-1.5993118,1.1791995-2.9358597,2.6869161-4.0519485,4.3294477
		c-1.0746231,1.5992646-1.8638306,3.3402038-2.4324341,5.1512151c-0.7060471,0.1672134-1.4142685,0.3245068-2.124382,0.4654951
		c-0.8889923,0.1808796-1.7845764,0.3304701-2.6815872,0.4786348c0.5278625-1.1186247,1.0648575-2.228385,1.6001053-3.3375654
		c0.8247223-1.67799,1.7195206-3.3205743,2.8520203-4.8083982c1.1195221-1.4904094,2.5139542-2.8027358,3.6828079-4.3424277
		c0.0428467-0.0565117,0.047699-0.1248428,0.0329285-0.1905356c0.0046463-0.0714443-0.0125046-0.1423081-0.071022-0.1925934
		c-0.0985641-0.0846883-0.247261-0.0734493-0.3311005,0.0259605c-1.2976074,1.5119904-3.0197067,2.6669705-4.9112396,2.8917508
		c-0.9319458,0.1374538-1.863884,0.1746533-2.7301331,0.0164628c-0.8670883-0.1470041-1.7540741-0.5386283-2.7102356-0.9077747
		c-0.9353714-0.3777468-2.0333099-0.7123318-3.1105194-0.5982004c-1.0486031,0.0674341-2.1776772,0.4676591-2.8952293,1.3348044
		c-0.1746025,0.2143855-0.3267784,0.4434927-0.4504051,0.6872685c-0.1391449,0.2740629-0.1919098,0.5558827-0.2178154,0.8298929
		c-0.0518684,0.5507116,0.0527115,1.1048532,0.2818184,1.6027994c0.454731,1.0287657,1.4774284,1.6305013,2.4664078,1.9001851
		c0.1227875,0.0320282,0.2507439-0.038888,0.2870445-0.1607761c0.0363045-0.1244731-0.0354576-0.2541704-0.1599312-0.290473
		c-0.9068794-0.2714777-1.7618866-0.8126388-2.1076584-1.6659069c-0.1738091-0.4158435-0.2438278-0.8800726-0.1833076-1.3244095
		c0.0276489-0.2196093,0.0804138-0.4374774,0.1772385-0.6051657c0.111496-0.1988196,0.2446747-0.3821263,0.3916245-0.5507116
		c0.6042709-0.6717026,1.524971-0.9716735,2.4543266-0.996737c0.9380112-0.0700724,1.8050995,0.2567561,2.6721954,0.7105906
		c0.8593369,0.4504049,1.7558212,1.0270243,2.8649979,1.2570286c1.1022186,0.2178149,2.210495,0.089015,3.2150955-0.2481556
		c0.5568848-0.1764998,1.0904999-0.4281378,1.5935669-0.7237291c-0.3128433,0.3176472-0.6219406,0.6410987-0.9183807,0.9806437
		c-1.2863617,1.4455061-2.4543228,3.0162768-3.4355469,4.6804428c-0.8448257,1.3956947-1.5205383,2.8670034-2.1575241,4.3419523
		c-0.3711014,0.0646381-0.7425156,0.1215715-1.1129227,0.1932793c-1.3574982,0.2638273-2.7110825,0.5680723-4.0412483,0.958746
		c-0.0317116-0.044692-0.0589371-0.0923386-0.0936584-0.1348677c-0.3294106-0.4002781-0.7391891-0.680356-1.172287-0.9224434
		c-0.8765907-0.4806395-1.8967552-0.6189899-2.8693237-0.5489702c-0.9768448,0.0829992-1.9278336,0.3588037-2.8079071,0.7711649
		c-1.7514915,0.8316345-3.3032684,2.1699209-4.2118874,3.9421501c-0.4469223,0.8904152-0.6682205,1.9001846-0.6509666,2.8952332
		c0,1.0019608,0.2783928,2.0246582,0.8238792,2.8891659c0.5429039,0.8662472,1.3123283,1.5664959,2.1742477,2.0843353
		c0.4356842,0.2559128,0.8791771,0.4867077,1.4013405,0.631073c0.492775,0.1470051,1.0046005,0.2221947,1.5146294,0.2420883
		c2.0592728,0.0795174,4.0320625-0.7201424,5.6391907-1.902771c1.6183624-1.19561,2.8753357-2.7949791,3.8626328-4.4772968
		c0.9967346-1.6857986,1.7687454-3.4545441,2.5485611-5.1835594c0.2139664-0.4836998,0.44133-0.9548941,0.6637878-1.4306784
		c0.9650269-0.154603,1.9307938-0.3101549,2.8919144-0.489399c0.6510162-0.1238403,1.300766-0.2617159,1.9492569-0.4070845
		c-0.5432739,1.838397-0.8636627,3.7442284-1.0069275,5.650322c-0.1218872,1.9771175,0.0466461,4.0363369,0.7581329,5.9555702
		c0.3302612,0.9665012,0.919014,1.9641361,1.7757111,2.6601105c0.3872452,0.3236618,0.8381271,0.5744038,1.3180847,0.7433052
		c0.0026321,0.0247478,0.002739,0.049757,0.0054855,0.0745049c0.1089096,0.947506,0.2230377,1.9070969,0.5567245,2.8312283
		c0.3198624,0.8973808,0.9216003,1.852644,1.9537964,2.1915569c0.0043259,0.0017395,0.0112381,0.0034294,0.015564,0.0051689
		c0.1253738,0.0319748,0.2541733-0.0423698,0.2870407-0.1676865c0.0319824-0.12537-0.042366-0.2533264-0.1677399-0.2861481
		c-0.8420258-0.2204533-1.42556-1.0201645-1.7471619-1.8725357c-0.3299942-0.8424511-0.4780579-1.7646828-0.5994644-2.6820087
		c0.4887619,0.1313343,1.000267,0.1783466,1.50634,0.1135521c1.1324997-0.1409359,2.0713577-0.7858353,2.7646942-1.5198002
		c0.7028351-0.7434635,1.2189331-1.6019554,1.6468582-2.483717c0.4236526-0.8861408,0.7357025-1.8163395,0.9397507-2.7716045
		c0.1979752-0.9484024,0.3311005-1.9468822,0.1305389-2.9401894c-0.1011505-0.4901886-0.27491-0.9760513-0.5740356-1.4005489
		c-0.2887268-0.4252892-0.737442-0.7762842-1.2509613-0.9016542c-0.5109253-0.1486931-1.0607376-0.0570393-1.5241241,0.1400394
		c-0.4633865,0.2092142-0.8662491,0.5126677-1.2137604,0.8593359c-0.7028351,0.6994038-1.1670609,1.5690823-1.5655975,2.4370193
		c-0.3968506,0.8774872-0.6786652,1.7999306-0.8930511,2.7336121c-0.3026123,1.3522186-0.4100418,2.7394714-0.3708344,4.1213417
		c-0.1108093-0.0806255-0.2234116-0.1591396-0.3225021-0.2544346c-0.5835342-0.554985-0.966507-1.2768669-1.1930237-2.1214828
		c-0.4918823-1.6978817-0.537735-3.5116367-0.3544312-5.3124123c0.1962357-1.80336,0.5965118-3.6197014,1.1350937-5.3607988
		c0.1085892-0.3437128,0.2240372-0.6851044,0.3406525-1.0259686c2.2588806-0.6271162,4.4681091-1.4371691,6.5555115-2.539278
		c1.6832123-0.9094639,3.2747726-2.0912485,4.4132919-3.6897211C88.5580521,4.7358484,88.9989548,3.7745168,88.8960648,2.7181025z
		 M65.4480515,19.178299c-0.9103622,1.5984726-1.9953232,3.0862961-3.4027328,4.2118855
		c-1.3918419,1.1151943-3.1225967,1.8846188-4.8879128,1.8828773c-0.438324,0.0008984-0.8774872-0.0457993-1.3010902-0.1538639
		c-0.3993797-0.0890675-0.8186531-0.2818184-1.2068481-0.492775c-0.7815056-0.4296684-1.4782715-1.0201111-1.9736862-1.7489071
		c-1.0131989-1.4480381-1.0520859-3.5003986-0.2835083-5.1213493c0.7910042-1.6434288,2.2347183-2.9660969,3.8850594-3.7925596
		c1.6313438-0.8238783,3.6655006-1.1385708,5.3029137-0.2835608c0.3933144,0.215229,0.7832489,0.4841213,1.0590019,0.8186541
		c0.0034828,0.004221,0.0049591,0.0098143,0.0084419,0.0140877c-0.372261,0.1146069-0.743885,0.2314816-1.1115532,0.3620234
		c-0.8990707,0.3207073-1.7817268,0.6941805-2.6333084,1.1325016c-0.8532677,0.4434929-1.6580963,1.032196-2.2451096,1.8206158
		c-0.5705528,0.7711639-0.982914,1.7973442-0.6786156,2.8036327c0.1486931,0.4918785,0.5290756,0.92239,1.0037003,1.1246929
		c0.4702454,0.2212963,0.993309,0.2360191,1.4808578,0.1833057c0.9717293-0.1288528,1.9149094-0.5204773,2.6626968-1.1593075
		c0.7530136-0.6224709,1.360714-1.4057198,1.8007774-2.2745533c0.4305115-0.8661957,0.7201385-1.8509026,0.5887032-2.8554487
		c-0.0473862-0.357749-0.1632576-0.7143373-0.3444023-1.0348339c1.5964699-0.4720383,3.2317696-0.7916384,4.8796883-1.0697641
		C67.2227097,15.4793959,66.4478989,17.4110298,65.4480515,19.178299z M63.1493301,15.7021189
		c0.1244736,0.8913107-0.1322823,1.8223562-0.5386276,2.6453886c-0.8186569,1.6434288-2.3228912,3.0603371-4.1850853,3.2712917
		c-0.4477654,0.0510254-0.9163742,0.0363026-1.3122711-0.1504326c-0.4020195-0.1702747-0.7098007-0.516098-0.8403397-0.931942
		c-0.2679977-0.8506832,0.0847397-1.805048,0.6215744-2.532999c1.1212616-1.5033894,2.9955406-2.1984148,4.7314644-2.8788233
		c0.3817062-0.1423607,0.7675781-0.268259,1.1546135-0.389514C62.9648628,15.0282001,63.1007843,15.3531284,63.1493301,15.7021189z
		 M78.0698318,21.7813168c0.1971359-0.9198055,0.5091858-1.8146,0.9077225-2.6635399
		c0.4080887-0.8446159,0.8757477-1.6719227,1.5405884-2.3056335c0.6440582-0.6267471,1.5396423-1.108284,2.3730698-0.8541126
		c0.8446121,0.2221413,1.316597,1.1126099,1.4419708,1.9874592c0.1435242,0.8861408-0.0094986,1.8146515-0.2360229,2.7068081
		c-0.2420349,0.8913116-0.5886993,1.7575073-1.0304489,2.5632324c-0.438324,0.804884-0.9838104,1.5526733-1.6321945,2.1491852
		c-0.6449509,0.5947704-1.4212875,1.0123558-2.2002029,1.046072c-0.5265503,0.027544-1.0478668-0.1190376-1.5090942-0.3792763
		C77.6641693,24.6060562,77.7644272,23.1742153,78.0698318,21.7813168z M87.631279,5.2787509
		c-1.063324,1.5215406-2.5917816,2.6860189-4.2326202,3.5894141c-1.9665146,1.0595274-4.0627747,1.8569174-6.2144394,2.4877796
		c0.4403763-1.2414103,0.9435501-2.4573345,1.5625381-3.6159554c0.8463593-1.6088147,1.9390717-3.0932088,3.2989426-4.3095551
		c0.6708603-0.6138191,1.4212341-1.1506534,2.1993103-1.6243805c0.7702713-0.4547316,1.6347733-0.7729065,2.4811325-0.6440536
		c0.4227524,0.060469,0.8290482,0.2377077,1.1368256,0.5169419c0.3060455,0.2809753,0.498848,0.6743408,0.5524063,1.0961996
		C88.5139389,3.6344776,88.1370316,4.533546,87.631279,5.2787509z"/>
	<path class="st0" d="M10.3654842,58.0010757v-0.2083168c0.5126152-0.0414734,0.9414387-0.1340256,1.2881069-0.2800789
		c0.3457708-0.1452637,0.5748787-0.3077812,0.6855268-0.487606c0.0276489-0.0423698,0.0518684-0.12537,0.0726051-0.2498436
		c0.0207901-0.1244736,0.038044-0.2697334,0.0518684-0.4365807c0.0138779-0.1659966,0.0242195-0.3388557,0.0311317-0.5186806
		s0.0103951-0.3535805,0.0103951-0.5195808c0.0138245-0.4573174,0.0216331-0.9276161,0.0216331-1.412632v-1.3918457v-1.1636314
		v-0.7270546H4.320847v4.4669533c0,0.4019661,0.0069122,0.7892647,0.0207367,1.162735
		c0.01298,0.3743172,0.0760875,0.6371422,0.1867366,0.7901611c0.165947,0.2351227,0.4011216,0.4149475,0.7062635,0.5394745
		c0.3043504,0.1244736,0.6025801,0.2014046,0.8930531,0.2282104v0.2083168H0v-0.2083168
		c0.3458239-0.0544548,0.6777706-0.1486931,0.9967898-0.2800789c0.3181221-0.1314392,0.5610537-0.2939568,0.7270533-0.487606
		c0.0553509-0.0691757,0.100307-0.1841507,0.1348683-0.3431854c0.0345613-0.1590881,0.062263-0.3432388,0.0829998-0.5507088
		c0.0207368-0.2074738,0.0380437-0.4330978,0.0518683-0.6751862s0.0207368-0.4737282,0.0207368-0.6959229
		c0-0.1936493,0.0034823-0.4564743,0.0112391-0.7893143c0.006068-0.3319473,0.0129802-0.6959229,0.0198925-1.0901337
		c0.0069122-0.3950539,0.0112391-0.8005562,0.0112391-1.2155037v-1.2051048v-4.0502129v-0.7477913
		c0-0.2498436-0.0112391-0.4815369-0.0311315-0.6968193c-0.0207369-0.214386-0.0527127-0.4080353-0.0933419-0.5809441
		c-0.0423706-0.1737595-0.1037366-0.3077812-0.1876335-0.4054489c-0.1936487-0.2351227-0.4330977-0.4046059-0.7166586-0.5091858
		c-0.2835609-0.1037369-0.6060098-0.1763954-0.9656582-0.2178688v-0.2074738h6.1907444v0.2074738
		c-0.1945457,0.0276489-0.402019,0.0700188-0.6241608,0.1244736c-0.2213507,0.0553513-0.4219117,0.1426773-0.6017361,0.2602386
		c-0.1806684,0.1175613-0.3328433,0.2800789-0.4573169,0.4876022c-0.1244736,0.2074738-0.1936488,0.4711418-0.2074733,0.7892647
		c-0.0138245,0.4850197-0.0242195,1.0080299-0.0311317,1.5690842C4.3242764,47.042614,4.320847,47.5794487,4.320847,48.0921173
		v1.3296318v0.768528h8.205904v-1.2051086v-1.0797882v-1.0598984c0-0.3595924-0.0078087-0.7685242-0.0216331-1.2258415
		c-0.0138245-0.261982-0.0311317-0.5359917-0.0518684-0.8204498c-0.0207367-0.2835617-0.086483-0.5152016-0.1971312-0.695919
		c-0.2498446-0.3734741-0.5334053-0.605114-0.8515272-0.6959229c-0.3190193-0.0899124-0.6371412-0.1417809-0.9561605-0.1556053
		v-0.2074738h6.2530079v0.2074738c-0.3319988,0.0414734-0.6578789,0.1348686-0.9760532,0.2809753
		c-0.3189659,0.1452103-0.554141,0.3561668-0.7062635,0.6328125c-0.0561953,0.0968246-0.0968246,0.2325401-0.124526,0.4054489
		c-0.0276489,0.1737595-0.049283,0.3674049-0.062211,0.5817909c-0.0147209,0.2144394-0.0207891,0.4331512-0.0207891,0.6544495
		v0.6440544V50.00354v1.3909988v1.2051086c0,0.388195,0.0026379,0.7893181,0.0095501,1.205162
		c0.0077572,0.4149437,0.0112391,0.872261,0.0112391,1.3711052c0,0.4019661,0.0103426,0.7719574,0.0310793,1.1108665
		c0.0207891,0.339756,0.0726576,0.5714493,0.1556578,0.6959229c0.1797714,0.2774925,0.4218588,0.4711418,0.7270536,0.5818443
		c0.3042965,0.1114922,0.6362438,0.1867371,0.9967365,0.2282104v0.2083168H10.3654842z M39.3649368,53.4930191
		c0.415844-0.9414406,0.6233177-1.9667778,0.6233177-3.0742149c0-0.9976349-0.1738091-1.9528961-0.5195808-2.8666878
		c-0.3458252-0.9137878-0.8446159-1.7212563-1.4955788-2.4206085c-0.6510201-0.6985092-1.4437675-1.2561302-2.3782921-1.6719742
		c-0.9353714-0.415844-1.9909439-0.6233177-3.1683998-0.6233177c-1.0797901,0-2.1076584,0.1763954-3.0845566,0.5299759
		c-0.9760532,0.3535805-1.8275795,0.8592834-2.5546322,1.5163155c-0.7270546,0.6578789-1.3062592,1.4610214-1.7350826,2.4093704
		c-0.4296684,0.9492493-0.6440525,2.0186424-0.6440525,3.2099266c0,1.1221581,0.2040424,2.1500282,0.6129208,3.0845566
		c0.4080868,0.935421,0.9656582,1.7385635,1.6728725,2.4102669c0.7062626,0.6716995,1.5292969,1.1904373,2.4715805,1.5578423
		c0.9414921,0.3665619,1.9391251,0.5507126,2.9912128,0.5507126c1.0659142,0,2.0739403-0.1876335,3.0231895-0.5611076
		c0.947506-0.3743172,1.7791405-0.9068756,2.4923706-1.5993156C38.3854561,55.2514229,38.9490929,54.4352989,39.3649368,53.4930191
		 M37.090435,47.8840637c0.214386,0.8593369,0.3224487,1.7108612,0.3224487,2.5555305
		c0,0.872261-0.1080627,1.7454224-0.3224487,2.6168442c-0.2152824,0.8731575-0.5368881,1.6589928-0.9656601,2.357502
		c-0.4296646,0.7002487-0.9665527,1.2716942-1.6097107,1.714344c-0.6449509,0.4434929-1.4031334,0.6647911-2.2753983,0.6647911
		c-0.8723164,0-1.6373615-0.2005615-2.2952919-0.602581c-0.657877-0.401123-1.2051067-0.9345284-1.6416874-1.5993156
		c-0.4356823-0.6647911-0.7650967-1.4333725-0.9863949-2.3056335c-0.2212982-0.8731613-0.3319473-1.7800407-0.3319473-2.7214775
		c0-0.8999672,0.1002541-1.7895355,0.3008156-2.6696091c0.2005615-0.8791771,0.5126686-1.6650085,0.9354248-2.357502
		c0.4218578-0.6924934,0.9621754-1.2569771,1.6200523-1.6927109c0.6579323-0.4365807,1.4368-0.6552925,2.3367653-0.6552925
		c0.8861427,0,1.6546669,0.2187119,2.3056335,0.6552925c0.6510201,0.4357338,1.194767,1.0037003,1.6313477,1.7031059
		C36.5501175,46.2467041,36.8751526,47.0256233,37.090435,47.8840637 M60.6159592,46.5342216l-1.412632-3.4900055H47.6535263
		v0.2074738c0.3743172,0.0553513,0.6786156,0.1141319,0.9137878,0.1772385
		c0.2360191,0.061367,0.4573174,0.2040443,0.6647911,0.4253426c0.0830002,0.0830002,0.1486931,0.2178688,0.1979752,0.4054489
		c0.0475426,0.1867371,0.0830002,0.3976898,0.1037369,0.6328125c0.0207367,0.2360191,0.0337181,0.4850197,0.0415268,0.7486877
		c0.0069122,0.2627716,0.0103416,0.5186844,0.0103416,0.768528v4.0502129v1.2051086
		c0,0.4149971-0.0034294,0.820446-0.0103416,1.2154999c-0.0078087,0.3942108-0.0138779,0.7581863-0.0207901,1.0901871
		c-0.0069122,0.3327904-0.0103416,0.5956116-0.0103416,0.7901573c0,0.2212982-0.0078087,0.4460793-0.0207367,0.6742897
		c-0.0138779,0.2282104-0.0389404,0.4469757-0.0726585,0.6544495c-0.0345612,0.2074738-0.0726051,0.3916245-0.114975,0.5506592
		c-0.0406303,0.1590843-0.0968246,0.2809753-0.165947,0.3631287c-0.1937027,0.2221413-0.4392204,0.3950539-0.7374496,0.5195274
		c-0.2973824,0.124527-0.6198311,0.2152824-0.9656563,0.2697372v0.2083702h6.6472168v-0.2083702
		c-0.5680199-0.0268059-1.0002708-0.0933418-1.2985001-0.1970787c-0.2973862-0.1037369-0.5091858-0.25243-0.6337128-0.4460793
		c-0.1244736-0.1936493-0.2039909-0.4884491-0.2386055-0.8835526c-0.0345612-0.3942108-0.0587807-0.8134842-0.0726051-1.256134
		c0-0.2360191-0.0034294-0.516098-0.0103416-0.8420296c-0.0069656-0.3250313-0.0103951-0.6820946-0.0103951-1.0693932v-1.2466316
		v-1.3295822h0.5610542h0.4357338c0.1391449,0,0.2844086,0.0043259,0.4365807,0.0103416
		c0.1521225,0.0078087,0.3327942,0.0173073,0.5403175,0.0311317c0.401123,0.0285454,0.7503777,0.1011505,1.0486069,0.2187119
		c0.2973862,0.1176147,0.5783615,0.2939568,0.8411827,0.5299759c0.291317,0.262825,0.5403175,0.6405716,0.7486877,1.1316032
		c0.2074738,0.4919319,0.3665085,0.9596443,0.477211,1.4022408h0.2489471v-6.6886902h-0.2489471
		c-0.0553513,0.3458214-0.1176147,0.6682701-0.1867371,0.9656563c-0.0700722,0.2982826-0.1867371,0.5714493-0.3535805,0.8204498
		c-0.1660004,0.2498436-0.3942642,0.4642296-0.6855812,0.6440506c-0.2904701,0.1806717-0.6855774,0.3258781-1.1835251,0.4365807
		c-0.1944923,0.0414734-0.4365807,0.0717087-0.7270546,0.0933418c-0.291317,0.0207367-0.5713959,0.038044-0.8411293,0.0518684
		c-0.2705803,0.0138245-0.5161514,0.0207367-0.7374496,0.0207367h-0.3743172v-0.6440544v-1.3295784
		c0-0.5126686,0.0034294-1.0555725,0.0103951-1.6305008c0.0069122-0.5748787,0.0172539-1.1039581,0.0310783-1.5889244
		c0.0138245-0.2498436,0.0277023-0.4608002,0.0415268-0.633709c0.0138245-0.1737556,0.0276489-0.3155365,0.0414734-0.4261856
		s0.0311317-0.2074738,0.0518684-0.2904739s0.038044-0.1660004,0.0518684-0.2498436
		c0.0691757,0,0.1763954-0.0025864,0.3225021-0.0103951c0.1452103-0.0069122,0.3008156-0.012928,0.4668159-0.0207367
		c0.1668434-0.0060692,0.3397522-0.0129814,0.519577-0.0207367c0.1798248-0.0069122,0.339756-0.0103951,0.478054-0.0103951
		c0.816967,0,1.5336266,0.0389404,2.1500282,0.114975c0.615509,0.0752449,1.041748,0.1694832,1.2777672,0.2801323
		c0.4841194,0.2360191,0.9829102,0.6025276,1.4955788,1.1005249c0.5117722,0.4987907,1.0520897,1.1013718,1.6201057,1.8076363
		L60.6159592,46.5342216z M80.2674561,46.5342216l-1.4126358-3.4900055H67.3050232v0.2074738
		c0.3743134,0.0553513,0.6786118,0.1141319,0.9137878,0.1772385c0.2360153,0.061367,0.4573135,0.2040443,0.6647873,0.4253426
		c0.0830002,0.0830002,0.1486969,0.2178688,0.1971359,0.4054489c0.0483856,0.1867371,0.0830002,0.3976898,0.1037369,0.6328125
		c0.0215759,0.2360191,0.0345612,0.4850197,0.042366,0.7486877c0.0069122,0.2627716,0.0094986,0.5186844,0.0094986,0.768528
		v4.0502129v1.2051086c0,0.4149971-0.0025864,0.820446-0.0094986,1.2154999
		c-0.0078049,0.3942108-0.0138779,0.7581863-0.0207901,1.0901871c-0.0069122,0.3327904-0.0103378,0.5956116-0.0103378,0.7901573
		c0,0.2212982-0.0078125,0.4460793-0.0207367,0.6742897c-0.0138779,0.2282104-0.0389404,0.4469757-0.0726624,0.6544495
		c-0.0354004,0.2074738-0.0734482,0.3916245-0.114975,0.5506592c-0.0406265,0.1590843-0.0968246,0.2809753-0.165947,0.3631287
		c-0.1937027,0.2221413-0.4392166,0.3950539-0.7374496,0.5195274c-0.2982788,0.124527-0.6198273,0.2152824-0.9656525,0.2697372
		v0.2083702h6.6472168v-0.2083702c-0.5680237-0.0268059-1.0002747-0.0933418-1.2985001-0.1970787
		c-0.2973862-0.1037369-0.5091858-0.25243-0.6337128-0.4460793c-0.1244736-0.1936493-0.2039948-0.4884491-0.2386093-0.8835526
		c-0.0345612-0.3942108-0.0587769-0.8134842-0.0726013-1.256134c0-0.2360191-0.0034332-0.516098-0.0103455-0.8420296
		c-0.0069656-0.3250313-0.0103912-0.6820946-0.0103912-1.0693932v-1.2466316v-1.3295822h0.5610504h0.4357376
		c0.138298,0,0.2844086,0.0043259,0.4365768,0.0103416c0.1521225,0.0078087,0.3327942,0.0173073,0.5403214,0.0311317
		c0.401123,0.0285454,0.7503738,0.1011505,1.0486069,0.2187119c0.2973862,0.1176147,0.5783615,0.2939568,0.8411789,0.5299759
		c0.2913208,0.262825,0.5403214,0.6405716,0.7486877,1.1316032c0.2074738,0.4919319,0.3656693,0.9596443,0.477211,1.4022408
		h0.2489471v-6.6886902h-0.2489471c-0.0553513,0.3458214-0.1176147,0.6682701-0.1867371,0.9656563
		c-0.0700684,0.2982826-0.1867371,0.5714493-0.3535767,0.8204498c-0.1660004,0.2498436-0.3942642,0.4642296-0.685585,0.6440506
		c-0.2904663,0.1806717-0.6855774,0.3258781-1.1835251,0.4365807c-0.1944885,0.0414734-0.4365768,0.0717087-0.7270508,0.0933418
		c-0.2913208,0.0207367-0.5713959,0.038044-0.8420258,0.0518684c-0.2696838,0.0138245-0.5152588,0.0207367-0.736557,0.0207367
		h-0.3743134v-0.6440544v-1.3295784c0-0.5126686,0.0034256-1.0555725,0.0103912-1.6305008
		c0.0069122-0.5748787,0.0172577-1.1039581,0.0310822-1.5889244c0.0138245-0.2498436,0.0277023-0.4608002,0.0415268-0.633709
		c0.0138245-0.1737556,0.0276489-0.3155365,0.0414734-0.4261856s0.0311279-0.2074738,0.0518646-0.2904739
		s0.0380478-0.1660004,0.0518723-0.2498436c0.0691757,0,0.1763916-0.0025864,0.3225021-0.0103951
		c0.1452103-0.0069122,0.3008118-0.012928,0.4668121-0.0207367c0.1668472-0.0060692,0.3388596-0.0129814,0.519577-0.0207367
		c0.1798248-0.0069122,0.3397598-0.0103951,0.4780579-0.0103951c0.8169632,0,1.5336227,0.0389404,2.1500244,0.114975
		c0.615509,0.0752449,1.041748,0.1694832,1.277771,0.2801323c0.4841232,0.2360191,0.9829102,0.6025276,1.4947357,1.1005249
		c0.5126114,0.4987907,1.0529327,1.1013718,1.6209488,1.8076363L80.2674561,46.5342216z M100.7291107,53.7218094
		l-0.2074738-0.0622635c-0.1660004,0.4149437-0.3397598,0.8134804-0.519577,1.1938667
		c-0.1798248,0.3812828-0.4020233,0.7339668-0.6647949,1.0598984c-0.262825,0.3250847-0.5783615,0.6129227-0.9449234,0.8619194
		c-0.3674011,0.2498436-0.8273544,0.4504051-1.3815002,0.602581c-0.2360153,0.0691223-0.5056992,0.1244736-0.810051,0.165947
		c-0.3051453,0.0415268-0.6025314,0.0726585-0.893898,0.0933952c-0.2904739,0.0215797-0.5575714,0.0345612-0.7996597,0.0414734
		c-0.2420349,0.0078087-0.4184265,0.0103951-0.5290756,0.0103951c-0.2774963,0-0.5541458-0.0173073-0.8316345-0.0518684
		c-0.2766495-0.0337181-0.5334091-0.076088-0.7685776-0.1244736c-0.2351227-0.048439-0.4356842-0.1072197-0.6016846-0.1763954
		c-0.1668472-0.0691757-0.2774963-0.138298-0.3328476-0.2074738c-0.1244736-0.1936493-0.1970749-0.4918785-0.2178116-0.893898
		c-0.0207901-0.4011192-0.0380478-0.8238754-0.0518723-1.2665253c0-0.4711418-0.003479-0.8964806-0.0103912-1.27771
		c-0.0078125-0.3812294-0.0103989-0.7512741-0.0103989-1.1117668v-1.1005249v-1.2881088v-1.3918419
		c0-0.4150009,0.0025864-0.816967,0.0103989-1.2051086c0.0069122-0.387352,0.0138245-0.7824059,0.0207367-1.1835251
		c0.0060654-0.4020195,0.0173035-0.8446159,0.0311279-1.3296356c0.0138245-0.3743172,0.1003113-0.6751823,0.2602386-0.9042397
		c0.1581955-0.22826,0.3483582-0.4046021,0.5705566-0.5290756c0.2212982-0.12537,0.4573135-0.2152824,0.7063141-0.2706337
		c0.2489471-0.0544548,0.4633865-0.0968246,0.6440506-0.1244736v-0.2074738h-6.6264801v0.2074738
		c0.3596497,0.0414734,0.7019958,0.1244736,1.0279236,0.2498436c0.3250351,0.1244736,0.5844269,0.3042984,0.778923,0.5394707
		c0.0830002,0.0968246,0.1452637,0.2282104,0.1867371,0.3950539c0.042366,0.1660004,0.0726013,0.3570633,0.0942383,0.5714493
		c0.0207367,0.214386,0.0302353,0.4460793,0.0302353,0.6950798v0.7278976v4.0294762v1.2051048
		c0,0.4149475-0.0034332,0.8204498-0.0094986,1.2155037c-0.0077591,0.3942108-0.0147247,0.7581863-0.0207367,1.0901337
		c-0.0078125,0.33284-0.0103989,0.595665-0.0103989,0.7893143c0,0.2221947-0.0112381,0.4469223-0.0319748,0.6751862
		c-0.0207367,0.2282104-0.0449524,0.4469223-0.0726013,0.6543961c-0.0277023,0.2075233-0.0656967,0.3916245-0.1141357,0.5507088
		c-0.0483856,0.1590881-0.1072159,0.2800789-0.1763382,0.3630791c-0.1945496,0.2221947-0.4608002,0.3951073-0.7997131,0.5195808
		c-0.3396988,0.1244736-0.682045,0.2152824-1.0287094,0.2697372v0.2083168h13.3367538L100.7291107,53.7218094z
		 M121.2535019,54.0330162l-0.2291107-0.0622597c-0.3466644,0.595665-0.6820908,1.1048508-1.0071259,1.5267105
		c-0.3259354,0.4227562-0.6622086,0.778923-1.0080338,1.0702896c-0.3457718,0.2904739-0.7063141,0.515255-1.0806274,0.6751862
		c-0.3734741,0.1590347-0.7815094,0.2662544-1.2250061,0.3216057c-0.4019623,0.0552979-0.7858276,0.0907555-1.1532364,0.1037369
		c-0.3665619,0.0138245-0.6674271,0.0207367-0.9033966,0.0207367c-0.5541916,0-1.0668106-0.0415268-1.5371017-0.1244736
		c-0.4711456-0.0830002-0.7685852-0.2213516-0.8930588-0.4150009s-0.2048874-0.4884491-0.2386017-0.883503
		c-0.0354614-0.394207-0.0596237-0.8135338-0.0735016-1.2561302c0-0.1391945-0.0034332-0.3077812-0.0103455-0.5091858
		c-0.0069122-0.2005615-0.0094986-0.4115143-0.0094986-0.633709v-0.7063179v-0.6232643v-1.1636353
		c0-0.3734703,0.0129318-0.657032,0.0414734-0.8515244h0.5394745h0.4157944c0.1383514,0,0.2766495,0.0042725,0.4149933,0.0103416
		c0.138298,0.0078087,0.3112106,0.0173073,0.5195847,0.0311317c0.4157867,0.0285454,0.778923,0.1045799,1.0901337,0.2291069
		c0.3120499,0.1244736,0.5783615,0.2835617,0.800499,0.4772072c0.2490005,0.2360191,0.4884491,0.5895996,0.716713,1.059845
		c0.2282104,0.4711952,0.3976364,0.9276161,0.5091858,1.371109h0.2489471V47.157589h-0.2489471
		c-0.083847,0.3872986-0.1772385,0.7374496-0.2809753,1.0486603c-0.1037369,0.3120537-0.2420349,0.5852737-0.4158478,0.8203926
		c-0.1728592,0.2360229-0.3976364,0.4365807-0.6751785,0.602581c-0.2765961,0.1660004-0.6232681,0.2982292-1.038269,0.3942108
		c-0.1798248,0.0423698-0.4054489,0.0726051-0.6751862,0.0942383c-0.2696838,0.0207367-0.5403137,0.038044-0.8099976,0.0518684
		c-0.2697372,0.0138245-0.5092392,0.0207367-0.716713,0.0207367h-0.4158401v-0.2282104
		c0-0.12537-0.0034332-0.301712-0.0103455-0.5299759c-0.0069122-0.2290535-0.0094986-0.5230064-0.0094986-0.8834991v-1.3287392
		c0-0.9137878,0.0094986-1.7177734,0.0302353-2.4102669c0.021637-0.6924896,0.04496-1.1489105,0.0735016-1.3711052
		c0.1374588-0.0268059,0.3630829-0.0518684,0.6751862-0.0726051c0.3112106-0.0207367,0.6129227-0.0311317,0.9033966-0.0311317
		c0.9137878,0,1.6892319,0.0414734,2.3263702,0.12537c0.6371384,0.0821037,1.072876,0.1797714,1.3088989,0.2904739
		c0.9829102,0.4849663,2.0358963,1.426403,3.1571579,2.8252144l0.208374-0.1037903l-1.4134827-3.427742H107.687645v0.2074738
		c0.3743668,0.0553513,0.6786652,0.1141319,0.9146881,0.1772385c0.2351151,0.061367,0.4573135,0.2039909,0.6647873,0.4253426
		c0.0830002,0.0830002,0.1486893,0.2178154,0.1970749,0.4045486c0.048439,0.1876335,0.0830002,0.3985367,0.1037903,0.6337128
		c0.0207367,0.2360191,0.0345612,0.4849663,0.0414734,0.7486343c0.0069122,0.262825,0.0103989,0.5187378,0.0103989,0.7685814
		v4.0502129v1.2051048c0,0.4149475-0.0034866,0.8204498-0.0103989,1.2155037
		c-0.0069122,0.3942108-0.0138245,0.7581863-0.0207367,1.0901337c-0.0069122,0.33284-0.0103912,0.595665-0.0103912,0.7893143
		c0,0.2221947-0.0069122,0.4469223-0.0207367,0.6751862c-0.0138245,0.2282104-0.0380478,0.4469223-0.0726089,0.6543961
		c-0.0346146,0.2075233-0.0726547,0.3916245-0.1141281,0.5507088c-0.0414734,0.1590881-0.0976715,0.2800789-0.1660004,0.3630791
		c-0.1936493,0.2221947-0.4400101,0.3951073-0.7373962,0.5195808c-0.2982788,0.1244736-0.6207275,0.2152824-0.9665527,0.2697372
		v0.2083168h12.7134857L121.2535019,54.0330162z M144,58.0009155v-0.2083702
		c-0.6510162-0.0959244-1.2189789-0.3112068-1.703949-0.6431541c-0.4850159-0.3320007-0.9829712-0.8584938-1.495636-1.5785789
		c-0.3319397-0.4711952-0.7097473-1.0115128-1.1316071-1.6209526c-0.42276-0.6086464-0.8135376-1.1766129-1.1740265-1.7031059
		c-0.2074738-0.2904739-0.422699-0.554142-0.6440582-0.7893181c-0.2212982-0.2359657-0.4503937-0.4157906-0.6855164-0.5403175
		V50.854908c0.4573059-0.1521721,0.8938904-0.3389091,1.3088379-0.5610504
		c0.4158478-0.2213516,0.7789154-0.487606,1.0910339-0.7997131c0.311203-0.3112106,0.5602112-0.6708565,0.7477875-1.0797386
		c0.1867371-0.4089279,0.2800751-0.8697281,0.2800751-1.3815002c0-0.8307915-0.1867371-1.5197983-0.5610504-2.067028
		c-0.3734741-0.5472298-0.8653564-0.9803276-1.4748383-1.2985039c-0.5956726-0.3189659-1.2535553-0.505703-1.9727936-0.5610504
		c-0.7201385-0.0553513-1.5449219-0.0830002-2.4725342-0.0830002h-1.4540558c-0.5956726,0-1.19133,0.0034828-1.7869415,0.0103951
		c-0.5956726,0.0077553-1.1290741,0.0103416-1.5993805,0.0103416h-0.8515167v0.2075233
		c0.3743134,0.0561981,0.6890106,0.121891,0.9449158,0.1979256c0.2559052,0.076088,0.4884491,0.2247772,0.6959229,0.4461288
		c0.0829926,0.0829468,0.1486969,0.2178154,0.1971283,0.4054489c0.0492249,0.1867371,0.083847,0.3950539,0.1037445,0.6233177
		c0.0215759,0.2282104,0.0345612,0.4702454,0.0423126,0.7270546c0.006958,0.2558556,0.009552,0.5082855,0.009552,0.7581291
		v4.0502167v1.2051582c0,0.4157906-0.002594,0.8203964-0.009552,1.2155037
		c-0.0077515,0.394207-0.0138245,0.7581291-0.0207367,1.0901299c-0.0077515,0.3328438-0.0103455,0.5956154-0.0103455,0.7901611
		c0,0.2212982-0.0078125,0.4495087-0.0207825,0.6855278c-0.014679,0.2351723-0.0319824,0.4564705-0.0518799,0.6639442
		c-0.0207367,0.2074738-0.0527039,0.3951073-0.0941772,0.5610542c-0.0415344,0.1668434-0.0968323,0.2913704-0.1660004,0.3743706
		c-0.1798248,0.2212982-0.4288177,0.3872986-0.7477875,0.4979477c-0.3190308,0.1114922-0.6510162,0.1944923-0.9967957,0.2489433
		v0.2083702h6.647171v-0.2083702c-0.5679779-0.0267487-1.0114594-0.1339684-1.3295898-0.3215485
		c-0.3190155-0.1867371-0.5325623-0.3700447-0.644043-0.5498695c-0.1383514-0.2083168-0.214386-0.4711418-0.2282715-0.7901611
		c-0.0138245-0.3181229-0.0276489-0.6985054-0.0414734-1.1419983c-0.0138245-0.4573174-0.0207367-1.0183716-0.0207367-1.6823158
		v-2.3480072c0.1936493,0.0138245,0.3526917,0.0207367,0.4780579,0.0207367c0.1374512,0,0.338913,0.0276489,0.6016846,0.0830002
		c0.3605347,0.0700188,0.7028809,0.2429314,1.0287628,0.5195808c0.3250885,0.2774925,0.6268005,0.5748787,0.9034424,0.8930016
		c0.3327942,0.388195,0.6198425,0.7382927,0.8618774,1.0495529c0.2429352,0.3112106,0.4677124,0.6198349,0.6751862,0.9241333
		c0.2075195,0.3051949,0.4124146,0.6129227,0.6129761,0.9241829c0.2014008,0.3120575,0.4330902,0.6622047,0.6959229,1.0495033
		c0.2212982,0.3189659,0.3847046,0.5575714,0.4884491,0.7166595c0.1037292,0.1590881,0.190155,0.2801323,0.2593384,0.3639755
		c0.0691681,0.0821037,0.1313782,0.1556053,0.1875763,0.2178688c0.0544586,0.0622101,0.1452637,0.1556053,0.2697296,0.2800751H144z
		 M137.6847839,45.0592194c0.3457642,0.5403175,0.5195312,1.1558762,0.5195312,1.8483162
		c0,0.3743706-0.0492859,0.7348633-0.1452179,1.0806351c-0.0977173,0.3466682-0.2464142,0.6682701-0.4469757,0.9656563
		c-0.2005615,0.2982826-0.4607391,0.564537-0.7789154,0.8005562c-0.3189697,0.2351227-0.6993561,0.4218597-1.1428528,0.5602112
		c-0.4564667,0.153019-0.9310913,0.253273-1.4229736,0.301712c-0.4919281,0.0483856-1.0210114,0.0726051-1.588974,0.0726051
		v-0.7892647v-1.4956322c0-0.5679665,0.0034332-1.156723,0.0103455-1.7661629
		c0.0069122-0.6086464,0.0173035-1.1558762,0.0311279-1.6408424c0.0138245-0.3181229,0.0242157-0.564537,0.0311279-0.7374496
		s0.0138245-0.3086243,0.0207367-0.4054489c0.0069122-0.0959282,0.0173187-0.176342,0.0311432-0.2386055
		c0.0138245-0.0622101,0.0276489-0.1348648,0.0414734-0.217865c0.096817-0.0138245,0.2360077-0.0284958,0.4158325-0.0423203
		c0.1798248-0.0129776,0.4150085-0.0207901,0.7063293-0.0207901c0.4019623,0,0.7849884,0.0346146,1.1523895,0.1037369
		c0.3674011,0.0700722,0.7166595,0.1807213,1.0494995,0.3328438
		C136.8332062,44.0901299,137.3381195,44.5189018,137.6847839,45.0592194 M49.5114441,71.7432251
		c0.1011505-0.2490005,0.1521225-0.5264969,0.1521225-0.8325348c0-0.4971008-0.1227303-0.9285126-0.3674049-1.2924347
		c-0.2446175-0.3648148-0.5523987-0.646637-0.9232864-0.8455048c-0.3794899-0.2066345-0.7849388-0.3371735-1.2146034-0.3916245
		c-0.4305687-0.0536118-0.9241867-0.080368-1.4809151-0.080368h-0.5688629c-0.2195549,0-0.4538345,0.0025864-0.7028313,0.0069122
		c-0.2481041,0.0034332-0.4988441,0.0051727-0.7521172,0.0051727c-0.2533264,0-0.4867096,0.0025864-0.701992,0.0069122
		c-0.215229,0.0043259-0.4028625,0.006073-0.5636368,0.006073h-0.3034554v0.1244736
		c0.2282104,0.0328674,0.4400101,0.0726013,0.6388817,0.1175537c0.1979752,0.0458603,0.3604927,0.1348724,0.4875526,0.2671509
		c0.0501785,0.0501328,0.0899124,0.1305466,0.1202011,0.2429352c0.0293884,0.111496,0.0501251,0.2360229,0.0631065,0.3725739
		c0.0120811,0.1357651,0.0207367,0.2809753,0.0250626,0.4348373c0.0034294,0.1530228,0.0060692,0.3043518,0.0060692,0.4538879
		v2.4223557v0.7209854c0,0.2481003-0.0026398,0.4901886-0.0060692,0.7262039
		c-0.0043259,0.2360229-0.0086517,0.4538345-0.0129814,0.65271c-0.0034294,0.198822-0.0060654,0.356163-0.0060654,0.4719849
		c0,0.1331787-0.0043259,0.2688904-0.012928,0.410675c-0.0086555,0.1400375-0.0190506,0.2723236-0.0311317,0.3976364
		c-0.0129814,0.1236343-0.0311317,0.2351761-0.0570908,0.3345871c-0.0250664,0.099411-0.0587807,0.1737595-0.1011009,0.2238846
		c-0.1098022,0.1322784-0.2619781,0.2325897-0.4556274,0.2982788c-0.1936493,0.0665894-0.3967972,0.1158218-0.6077499,0.1486969
		v0.1244736H46.18396v-0.1244736c-0.3466682-0.0155716-0.6164055-0.0786743-0.8100548-0.1858978
		c-0.1936493-0.1071625-0.3250351-0.2152252-0.3916245-0.323288c-0.0846901-0.1244736-0.1313858-0.2809753-0.1391945-0.4720383
		c-0.0086555-0.1901703-0.0172539-0.4184341-0.0259094-0.6838379c0-0.1400452-0.0017395-0.2705841-0.0060654-0.3907318
		c-0.0043297-0.1202011-0.0060692-0.2506866-0.0060692-0.3916245v-0.4850159v-0.6829453h0.6829948
		c0.2610817,0,0.5290756-0.0103378,0.8031387-0.0311279c0.2740135-0.0207367,0.5463333-0.050972,0.8160706-0.0933456
		c0.2705803-0.0406265,0.5230103-0.1037369,0.7590294-0.1858902c0.2282639-0.0830002,0.4513016-0.192749,0.6708565-0.329361
		c0.2187119-0.1366119,0.4115181-0.2999725,0.5757751-0.4910355C49.2771683,72.2108841,49.4102936,71.9913254,49.5114441,71.7432251
		 M47.9233665,69.5680771c0.2489471,0.3734741,0.3734207,0.7997131,0.3734207,1.2795105
		c0,0.5221634-0.1434669,0.9924622-0.4305115,1.4108887c-0.2861481,0.4183807-0.7002487,0.718399-1.2396698,0.9008102
		c-0.2610817,0.0915985-0.5438004,0.1469498-0.8472519,0.1676865c-0.3042984,0.0207367-0.6293335,0.0311356-0.9743118,0.0311356
		v-0.5472336v-1.0434875c0-0.3976364,0.0017395-0.8030853,0.0060692-1.217186
		c0.0043259-0.4141006,0.0103951-0.7659988,0.0190468-1.0564651c0.0086021-0.1910172,0.0164108-0.3380203,0.0250626-0.4408569
		c0.0086555-0.1037369,0.0172539-0.185051,0.0250664-0.2420883c0.0086517-0.0579376,0.0189934-0.1063232,0.0319748-0.1435242
		c0.0120811-0.0363007,0.0224762-0.0803604,0.0311317-0.1305389c0.0596237-0.0077591,0.1374512-0.0181503,0.2342758-0.0310822
		c0.0968246-0.0121307,0.2342796-0.0182037,0.4115181-0.0182037c0.2446213,0,0.4806404,0.0164642,0.708004,0.0492859
		c0.2282639,0.0337143,0.4434929,0.0951385,0.6457939,0.1867371C47.3475914,68.9145279,47.674366,69.1955032,47.9233665,69.5680771
		 M62.3536263,74.7128601l-0.1262131-0.0372009c-0.102047,0.2481537-0.2075272,0.4858627-0.316433,0.7141266
		c-0.1106491,0.2273636-0.2455177,0.4391632-0.4054489,0.6336594c-0.160778,0.1944885-0.351841,0.3665543-0.5757751,0.5152512
		c-0.2230377,0.1486893-0.5040131,0.268837-0.8411331,0.3604889c-0.1435204,0.0414734-0.3086777,0.0743484-0.4936714,0.099411
		c-0.1858406,0.0250626-0.3665619,0.0432129-0.5437469,0.0561981c-0.1772385,0.012085-0.339756,0.0207367-0.4867058,0.0242157
		c-0.1486931,0.0043259-0.2559128,0.0069122-0.323349,0.0069122c-0.1685829,0-0.3371696-0.0103912-0.5057526-0.0311279
		c-0.1685867-0.0207367-0.3250351-0.0457993-0.4685593-0.0743484c-0.1435204-0.0293884-0.2654076-0.0648499-0.3665581-0.1063232
		c-0.1011505-0.0415268-0.1685867-0.0821533-0.2022514-0.1244736c-0.076088-0.1158676-0.1201973-0.2931061-0.1331787-0.5343018
		c-0.012085-0.2403412-0.0233231-0.492775-0.0310783-0.7581863c0-0.2809219-0.0026398-0.5350876-0.0069656-0.7633514
		c-0.0042725-0.2282104-0.0069122-0.4495087-0.0069122-0.6647949v-0.6587219v-0.7703171v-0.8324814
		c0-0.2490005,0.0026398-0.4884491,0.0069122-0.7210388c0.0043259-0.2316895,0.0086555-0.467659,0.0129814-0.7080002
		c0.0043259-0.2403488,0.0103951-0.5048599,0.0190468-0.794487c0.0077553-0.223938,0.060524-0.4046097,0.1581917-0.5411606
		c0.0968246-0.1366119,0.2126427-0.2420883,0.3475113-0.3164368s0.278389-0.1287994,0.4305649-0.1616745
		c0.1512794-0.0328217,0.2826653-0.0579376,0.3916245-0.0743484v-0.1244736H53.851181v0.1244736
		c0.2187119,0.0242233,0.4279289,0.0743484,0.6259041,0.1486969s0.3561668,0.1824112,0.4746246,0.3233414
		c0.0509682,0.0579376,0.0890121,0.1365585,0.1141281,0.2360229c0.0250664,0.099411,0.0440598,0.2135391,0.0570412,0.3414459
		c0.012085,0.1288528,0.0189972,0.2671509,0.0189972,0.416687v0.4348907v2.4102173v0.7209854
		c0,0.2481537-0.0025864,0.4901886-0.0069122,0.7262039c-0.0043297,0.2360229-0.0077591,0.4538879-0.012085,0.6518631
		c-0.0051727,0.198822-0.0069122,0.3570099-0.0069122,0.4728851c0,0.1331253-0.0060692,0.2670975-0.0190468,0.4037094
		c-0.012928,0.1366043-0.0276489,0.2671509-0.0440598,0.3916245c-0.0173073,0.1236267-0.0397873,0.2342758-0.0691757,0.329361
		c-0.0302353,0.0950775-0.0656929,0.1677399-0.1072197,0.2170181c-0.1184044,0.1322327-0.2818184,0.2359695-0.4875526,0.3112106
		c-0.2074738,0.0743484-0.415844,0.1279602-0.6267967,0.1607819v0.1244736h8.1229553L62.3536263,74.7128601z M75.0173035,77.2714996
		v-0.1486893c-0.1936493-0.0086594-0.362175-0.0458527-0.5056992-0.1115494
		c-0.1435242-0.0665359-0.2636719-0.1435242-0.3604965-0.22995c-0.0968246-0.087326-0.1754913-0.1720123-0.2342758-0.2550125
		c-0.0587769-0.0830002-0.0968246-0.1409378-0.1132889-0.1737595c-0.1019897-0.2152863-0.192749-0.4080887-0.272316-0.5775146
		c-0.080368-0.1703262-0.1668472-0.3838196-0.259346-0.6397324c-0.202301-0.5221634-0.4046021-1.0503922-0.6077499-1.5846481
		c-0.202301-0.5342484-0.4106216-1.0875397-0.6259003-1.658989c-0.214386-0.5714493-0.4409103-1.1653748-0.6768723-1.7826233
		c-0.2360229-0.6172485-0.4850235-1.2690582-0.746109-1.9572296h-0.1019897
		c-0.0337219,0.0579376-0.0812607,0.1322861-0.1452637,0.2230453c-0.0631104,0.0916519-0.1408844,0.1867294-0.2333832,0.2869873
		c-0.0933914,0.0985641-0.2005615,0.1945419-0.3233414,0.2853012c-0.1218948,0.0916519-0.2584991,0.1694336-0.4115219,0.2360229
		l0.1271133,0.2731628c-0.202301,0.4642792-0.4175873,0.9630737-0.6457977,1.4973221
		c-0.2265167,0.5343018-0.4573135,1.0642242-0.6890106,1.5907135c-0.2325821,0.5264969-0.4573135,1.0374222-0.6769257,1.534523
		c-0.2195511,0.4970474-0.4175262,0.9405441-0.5947647,1.3295822c-0.1936493,0.4219131-0.358757,0.7408752-0.4936218,0.9570007
		c-0.1348724,0.2152863-0.2316971,0.3509979-0.2904739,0.4097824c-0.025116,0.0328674-0.1158752,0.0951309-0.2723236,0.1867294
		c-0.1565018,0.0908127-0.3432388,0.14785-0.5627899,0.1729126v0.1366119h2.6946716v-0.124527
		c-0.1098099-0.0155106-0.2256775-0.0345612-0.3475647-0.0552979c-0.1227341-0.0198898-0.2360229-0.0536118-0.3414459-0.099411
		c-0.1063766-0.0458527-0.1928024-0.10289-0.2593994-0.1737518c-0.0674286-0.070076-0.1011505-0.1590881-0.1011505-0.2671509
		c0-0.1815643,0.0882263-0.4971008,0.2654114-0.9440231c0.1176147-0.2904739,0.2360229-0.5783615,0.3544769-0.8636703
		c0.1175613-0.2853012,0.2403488-0.586113,0.3665619-0.9008026h3.3654785
		c0.1262665,0.3224487,0.2438278,0.6336517,0.3544769,0.9319382c0.1089096,0.298233,0.2066269,0.5688095,0.2904739,0.8134842
		c0.0847397,0.2446747,0.1504364,0.4513016,0.1962357,0.6215744c0.0466919,0.169426,0.0691757,0.2913666,0.0691757,0.3665619
		c0,0.1158218-0.038887,0.2109528-0.1193008,0.2853012c-0.0804214,0.0743484-0.1729126,0.1331253-0.2792358,0.1745987
		c-0.1046371,0.0406342-0.2057877,0.0700226-0.3034592,0.0864868c-0.096817,0.0164032-0.157341,0.0241623-0.1832504,0.0241623
		v0.124527H75.0173035z M69.6660614,69.7424698c0.0760345,0.1815643,0.1711655,0.4158401,0.2852478,0.7019882
		c0.1132889,0.2861481,0.239502,0.6008377,0.3795395,0.9440765c0.138298,0.3440323,0.2818222,0.7019348,0.4296646,1.0745697
		c0.1477966,0.3734665,0.2921677,0.746048,0.4365845,1.1186752h-3.1502991
		c0.202301-0.4893494,0.3898773-0.942337,0.5627899-1.3607635c0.1729126-0.4183807,0.3311005-0.7927475,0.4746246-1.1246948
		c0.1426239-0.3302612,0.262825-0.6129227,0.3604965-0.8446121C69.5415344,70.0200119,69.615036,69.8505325,69.6660614,69.7424698
		 M87.2269897,71.1964188v-2.7828445h-0.1391907c-0.0501328,0.0743484-0.1046371,0.1461029-0.1642609,0.2169724
		c-0.0587845,0.0700684-0.1158752,0.1322784-0.1711731,0.1858902c-0.054451,0.054451-0.1046295,0.099411-0.1512756,0.1366119
		c-0.0466995,0.0371475-0.0778275,0.0561905-0.0951385,0.0561905c-0.0164108,0-0.0924988-0.0458527-0.2273636-0.1366043
		c-0.134819-0.0907593-0.329361-0.1902237-0.582634-0.2982864c-0.2524338-0.1071625-0.5688629-0.2074738-0.9484024-0.2982254
		c-0.3794937-0.0907593-0.8229828-0.1366119-1.3278427-0.1366119c-0.5576248,0-1.0590515,0.0579376-1.5059738,0.1737595
		c-0.4478226,0.1167145-0.8480988,0.2714767-1.2025757,0.4659653c-0.3535767,0.1953888-0.6622009,0.4201736-0.9232864,0.6778259
		c-0.2610855,0.256752-0.4806366,0.5255966-0.6578751,0.806572c-0.1521225,0.241188-0.2757568,0.4789505-0.3734741,0.7149124
		c-0.0968246,0.2360229-0.1729126,0.4625473-0.2273712,0.6769257c-0.0552979,0.2161331-0.093338,0.4184341-0.1140747,0.6094971
		c-0.0207901,0.1901627-0.0311356,0.3604889-0.0311356,0.5091858c0,0.6708603,0.1175613,1.2863617,0.3535843,1.8448334
		c0.2360153,0.5593643,0.5757751,1.0400009,1.0192642,1.4411774c0.4425964,0.4019699,0.9794846,0.7131805,1.6122971,0.9318924
		c0.6328201,0.2196045,1.3417206,0.3294144,2.1258087,0.3294144c0.4728851,0,0.8895721-0.0389481,1.252655-0.1175613
		c0.3631287-0.0786743,0.6708527-0.169487,0.9233398-0.2740631c0.253273-0.1028976,0.4477615-0.1988754,0.582634-0.2853088
		c0.1348648-0.087326,0.2101135-0.1305389,0.2282639-0.1305389c0.0414734,0,0.1175613,0.0579376,0.2264633,0.1737595
		c0.1098099,0.1167145,0.2152863,0.2446671,0.3164368,0.3856049h0.1521225l0.0380402-2.7336121h-0.1521225
		c-0.0760803,0.3562164-0.2170181,0.7019882-0.4235992,1.0374222c-0.2066269,0.3354263-0.4599533,0.6319656-0.759079,0.8887253
		c-0.2990723,0.256752-0.6414185,0.4633865-1.024437,0.6207275c-0.3838196,0.1572952-0.7953339,0.2359695-1.2336578,0.2359695
		c-0.5567245,0-1.063324-0.111496-1.518898-0.3345337c-0.4547348-0.223938-0.8437729-0.5290756-1.1636353-0.9146347
		c-0.3207626-0.3847122-0.5671234-0.8377533-0.740036-1.3598633c-0.1729126-0.522171-0.2593384-1.0806351-0.2593384-1.6771469
		c0-0.5636978,0.0820999-1.1126633,0.2463608-1.6460724c0.1642609-0.5350876,0.4002762-1.0131989,0.7089005-1.4358978
		c0.3077774-0.4219131,0.6890106-0.761673,1.1446381-1.018425c0.455574-0.2567596,0.9742584-0.3855591,1.5569458-0.3855591
		c0.4210129,0,0.8195496,0.0751953,1.1947632,0.2238846c0.3752213,0.1486969,0.7132339,0.3518906,1.0123596,0.6086502
		c0.2991257,0.2575989,0.5584641,0.5593109,0.7780228,0.9077225c0.2196121,0.3475113,0.383873,0.7201385,0.4936752,1.1177826
		L87.2269897,71.1964188z M100.1571884,74.8986969l-0.138298-0.0379944
		c-0.2109604,0.3570099-0.4158478,0.6613083-0.6138229,0.9137421c-0.1979752,0.2533264-0.4028625,0.4659653-0.6138153,0.6397781
		c-0.210907,0.1745987-0.4305115,0.3086243-0.6578827,0.4045486c-0.2282104,0.0951385-0.4763107,0.1590881-0.7469406,0.1919632
		c-0.2437744,0.0328217-0.4780579,0.054451-0.7019424,0.0622101c-0.2230377,0.0086517-0.4063416,0.0129776-0.5498657,0.0129776
		c-0.3380127,0-0.6492233-0.0250626-0.9362106-0.0751877c-0.2870483-0.0492859-0.4677124-0.1322861-0.5446472-0.2481537
		c-0.076088-0.1167221-0.124527-0.2921677-0.1452637-0.528183c-0.0207367-0.2360229-0.0354538-0.4867096-0.0440598-0.752121
		c0-0.0821533-0.0017395-0.1841507-0.0060654-0.3043442c-0.0051727-0.1201477-0.0069122-0.2463608-0.0069122-0.3786469v-0.4227524
		V74.003952v-0.6959229c0-0.2230377,0.0086517-0.393364,0.0259094-0.5091858h0.3285141h0.2524261
		c0.0847473,0,0.169487,0.0025864,0.2533264,0.0060196c0.0847473,0.0043259,0.1901703,0.0112381,0.3172836,0.0190506
		c0.2524261,0.0164032,0.4737244,0.0622101,0.6639404,0.1365509c0.1893234,0.0744019,0.3518448,0.169487,0.4867096,0.2862015
		c0.1521759,0.1400375,0.2973862,0.3509445,0.4365845,0.6336594c0.1391907,0.2809753,0.2420349,0.5541382,0.3094635,0.8195496
		h0.1521759v-3.9136047h-0.1521759c-0.0501251,0.2316971-0.1071625,0.4409103-0.1702728,0.6276474
		c-0.0631027,0.1858368-0.14785,0.3492508-0.2533264,0.4901352c-0.1054764,0.1409378-0.2420349,0.2610855-0.4106216,0.3604889
		c-0.1694794,0.0994644-0.3795395,0.1780853-0.6328125,0.2360229c-0.1098022,0.0250626-0.247261,0.0432129-0.4115143,0.0553513
		c-0.1642609,0.0138245-0.329361,0.0233231-0.492775,0.0319748c-0.1651077,0.0077591-0.3112106,0.012085-0.4374237,0.012085
		h-0.2524338v-0.1365585c0-0.0743484-0.0017395-0.1807175-0.0060654-0.317276
		c-0.0051727-0.1357651-0.0069122-0.3121109-0.0069122-0.5282364v-0.794487c0-0.5463333,0.0069122-1.0270233,0.0189972-1.441124
		c0.0121307-0.4141006,0.0277023-0.6881638,0.0441055-0.8203964c0.0846939-0.0164642,0.2212982-0.0311356,0.4115219-0.0432663
		c0.1893234-0.0129318,0.3734741-0.0189972,0.5498123-0.0189972c0.5576248,0,1.0296097,0.0250626,1.4178085,0.0743484
		c0.3881378,0.0501251,0.6535492,0.1080627,0.7970734,0.1746521c0.5981979,0.2895737,1.2396622,0.8523712,1.9226608,1.6892319
		l0.1270599-0.0622635l-0.8610306-2.0497284h-6.98349v0.1244736c0.2273712,0.0328751,0.413208,0.0682831,0.5567322,0.1046371
		c0.1435165,0.0371475,0.278389,0.1236267,0.4046021,0.2558594c0.0501251,0.0492859,0.0907593,0.1296997,0.1201477,0.2420883
		c0.0293884,0.1114883,0.0501251,0.237709,0.064003,0.3786392c0.012085,0.1409378,0.0198364,0.2904739,0.0241699,0.4478226
		c0.0052185,0.1573486,0.0069122,0.3103638,0.0069122,0.4590607v2.4231949v0.7209854
		c0,0.2481537-0.0016937,0.4901886-0.0069122,0.7262039c-0.0043335,0.2360229-0.0077591,0.4538879-0.012085,0.6518631
		c-0.0043259,0.198822-0.0069122,0.3570099-0.0069122,0.4728851c0,0.1331253-0.0043259,0.2670975-0.0121384,0.4037094
		c-0.0085983,0.1366043-0.0233231,0.2671509-0.0440598,0.3916245c-0.0207367,0.1236267-0.0441132,0.2342758-0.070015,0.329361
		c-0.0250702,0.0950775-0.0587845,0.1677399-0.1003113,0.2170181c-0.1193008,0.1322327-0.2679901,0.2359695-0.4495087,0.3112106
		c-0.1815643,0.0743484-0.3778,0.1279602-0.5887527,0.1607819v0.1244736h7.7434158L100.1571884,74.8986969z"/>
</g>
</svg>
