<?xml version="1.0" encoding="utf-8"?>
<!-- Generator: Adobe Illustrator 16.0.0, SVG Export Plug-In . SVG Version: 6.00 Build 0)  -->
<!DOCTYPE svg PUBLIC "-//W3C//DTD SVG 1.1//EN" "http://www.w3.org/Graphics/SVG/1.1/DTD/svg11.dtd">
<svg version="1.1" id="Layer_1" xmlns="http://www.w3.org/2000/svg" xmlns:xlink="http://www.w3.org/1999/xlink" x="0px" y="0px"
	 width="60.728px" height="58.024px" viewBox="0 0 60.728 58.024" enable-background="new 0 0 60.728 58.024" xml:space="preserve">
<g>
	<path id="LinkedIn_4_" fill="#231F20" d="M60.728,35.58v22.445H47.707V37.073c0-5.271-1.877-8.847-6.59-8.847
		c-3.602,0-5.728,2.422-6.677,4.756c-0.343,0.837-0.445,2.018-0.445,3.178v21.859H20.986c0,0,0.176-35.465,0-39.144h13.012v5.546
		c-0.018,0.047-0.056,0.085-0.073,0.135h0.073v-0.135c1.737-2.662,4.817-6.466,11.735-6.466
		C54.314,17.956,60.728,23.549,60.728,35.58z M7.368,0C2.917,0,0,2.917,0,6.771c0,3.746,2.829,6.765,7.199,6.765h0.082
		c4.548,0,7.365-3.02,7.365-6.765C14.559,2.917,11.829,0,7.368,0z M0.779,58.024h13.012V18.875H0.779V58.024z"/>
</g>
</svg>
