<?xml version="1.0" encoding="utf-8"?>
<!-- Generator: Adobe Illustrator 22.1.0, SVG Export Plug-In . SVG Version: 6.00 Build 0)  -->
<svg version="1.1" id="Layer_1" xmlns="http://www.w3.org/2000/svg" xmlns:xlink="http://www.w3.org/1999/xlink" x="0px" y="0px"
	 viewBox="0 0 200 55" style="enable-background:new 0 0 200 55;" xml:space="preserve">
<style type="text/css">
	.st0{clip-path:url(#SVGID_2_);fill:#009BB8;}
	.st1{fill:#04BBD8;}
	.st2{clip-path:url(#SVGID_4_);fill:#009BB8;}
	.st3{clip-path:url(#SVGID_6_);fill:#009BB8;}
	.st4{clip-path:url(#SVGID_8_);fill:#009BB8;}
	.st5{clip-path:url(#SVGID_10_);fill:#009BB8;}
</style>
<g>
	<g>
		<defs>
			<polygon id="SVGID_1_" points="103.4,40.6 114.2,53.2 152.3,14.4 139.7,3.3 			"/>
		</defs>
		<clipPath id="SVGID_2_">
			<use xlink:href="#SVGID_1_"  style="overflow:visible;"/>
		</clipPath>
		<rect x="103.4" y="3.3" class="st0" width="48.9" height="49.9"/>
	</g>
	<rect x="103.4" y="40.6" class="st1" width="51.7" height="13.9"/>
	<rect x="99.2" y="0.4" class="st1" width="53.1" height="13.9"/>
	<polygon class="st1" points="154.5,0.4 155.1,0.4 169.9,12.9 169.1,12.9 169.1,21.7 199.9,21.7 199.9,33.4 169.1,33.4 169.1,42.1 
		169.9,42.1 155.1,54.6 154.5,54.6 	"/>
	<g>
		<defs>
			<path id="SVGID_3_" d="M86.2,0.4v29.9c0,7.5-3.9,11-9.8,11c-5.9,0-9.8-3.7-9.8-11.4v4.2L70,49.4L82.2,53c0.3-0.1,1.1,0,1.9,0.1
				c0.8,0.1,1.7,0.2,2,0.1c0,0,0.1,0,0.1,0h0c9.4-2.9,15-10.3,15-23.4V0.4H86.2z"/>
		</defs>
		<clipPath id="SVGID_4_">
			<use xlink:href="#SVGID_3_"  style="overflow:visible;"/>
		</clipPath>
		<rect x="66.6" y="0.4" class="st2" width="34.7" height="52.9"/>
	</g>
	<g>
		<defs>
			<polygon id="SVGID_5_" points="154.5,0.4 169.1,12.9 199.9,12.9 199.9,0.4 			"/>
		</defs>
		<clipPath id="SVGID_6_">
			<use xlink:href="#SVGID_5_"  style="overflow:visible;"/>
		</clipPath>
		<rect x="154.5" y="0.4" class="st3" width="45.4" height="12.5"/>
	</g>
	<g>
		<defs>
			<polygon id="SVGID_7_" points="169.1,42.1 154.5,54.6 200,54.6 200,42.1 			"/>
		</defs>
		<clipPath id="SVGID_8_">
			<use xlink:href="#SVGID_7_"  style="overflow:visible;"/>
		</clipPath>
		<rect x="154.5" y="42.1" class="st4" width="45.5" height="12.4"/>
	</g>
	<g>
		<defs>
			<polygon id="SVGID_9_" points="15,0.4 15,31.6 26,54.6 34.3,38.7 15.5,0.4 			"/>
		</defs>
		<clipPath id="SVGID_10_">
			<use xlink:href="#SVGID_9_"  style="overflow:visible;"/>
		</clipPath>
		<rect x="15" y="0.4" class="st5" width="19.3" height="54.2"/>
	</g>
	<polygon class="st1" points="65.9,0.4 42.5,54.6 26,54.6 50.4,0.4 	"/>
	<rect y="0.4" class="st1" width="15.5" height="54.2"/>
	<path class="st1" d="M86.2,53.2c-3,0.9-6.3,1.4-10,1.4c-15.2,0-24.7-7.7-24.7-24.4V0.4h15v29.5v1C66.6,40.1,72.6,53.2,86.2,53.2"/>
</g>
</svg>
