<?xml version="1.0" encoding="utf-8"?>
<!-- Generator: Adobe Illustrator 22.1.0, SVG Export Plug-In . SVG Version: 6.00 Build 0)  -->
<svg version="1.1" id="Layer_1" xmlns="http://www.w3.org/2000/svg" xmlns:xlink="http://www.w3.org/1999/xlink" x="0px" y="0px"
	 viewBox="0 0 200 55" style="enable-background:new 0 0 200 55;" xml:space="preserve">
<style type="text/css">
	.st0{clip-path:url(#SVGID_2_);fill:url(#SVGID_3_);}
	.st1{fill:#FFFFFF;}
	.st2{clip-path:url(#SVGID_5_);fill:url(#SVGID_6_);}
	.st3{clip-path:url(#SVGID_8_);fill:url(#SVGID_9_);}
	.st4{clip-path:url(#SVGID_11_);fill:url(#SVGID_12_);}
	.st5{clip-path:url(#SVGID_14_);fill:url(#SVGID_15_);}
</style>
<g>
	<g>
		<defs>
			<polygon id="SVGID_1_" points="103.4,40.6 114.2,53.2 114.3,53.2 152.3,14.4 139.7,3.3 			"/>
		</defs>
		<clipPath id="SVGID_2_">
			<use xlink:href="#SVGID_1_"  style="overflow:visible;"/>
		</clipPath>
		
			<linearGradient id="SVGID_3_" gradientUnits="userSpaceOnUse" x1="-517.5282" y1="2510.814" x2="-515.5727" y2="2510.814" gradientTransform="matrix(24.9917 0 0 -24.9917 13037.3135 62777.6406)">
			<stop  offset="0" style="stop-color:#C4D1D6"/>
			<stop  offset="1" style="stop-color:#E7EBEB"/>
		</linearGradient>
		<rect x="103.4" y="3.3" class="st0" width="48.9" height="49.9"/>
	</g>
	<rect x="103.4" y="40.6" class="st1" width="51.7" height="13.9"/>
	<rect x="99.2" y="0.4" class="st1" width="53.1" height="13.9"/>
	<polygon class="st1" points="154.5,0.4 155.1,0.4 169.9,12.9 169.1,12.9 169.1,21.7 199.9,21.7 199.9,33.4 169.1,33.4 169.1,42.1 
		169.9,42.1 155.1,54.6 154.5,54.6 	"/>
	<g>
		<defs>
			<path id="SVGID_4_" d="M86.2,0.4v29.9c0,7.5-3.9,11-9.8,11c-5.9,0-9.8-3.7-9.8-11.4v4.2L70,49.4L82.2,53c0.3-0.1,1.1,0,1.9,0.1
				c0.8,0.1,1.7,0.2,2,0.1c0.1,0,0.1,0,0.1,0h0c9.4-2.9,15-10.4,15-23.4V0.4H86.2z"/>
		</defs>
		<clipPath id="SVGID_5_">
			<use xlink:href="#SVGID_4_"  style="overflow:visible;"/>
		</clipPath>
		
			<linearGradient id="SVGID_6_" gradientUnits="userSpaceOnUse" x1="-509.6328" y1="2469.8223" x2="-507.6772" y2="2469.8223" gradientTransform="matrix(17.7289 0 0 -17.7289 9101.7969 43814.1836)">
			<stop  offset="0" style="stop-color:#C4D1D6"/>
			<stop  offset="1" style="stop-color:#E7EBEB"/>
		</linearGradient>
		<rect x="66.6" y="0.4" class="st2" width="34.7" height="52.9"/>
	</g>
	<g>
		<defs>
			<polygon id="SVGID_7_" points="154.5,0.4 169.1,12.9 199.9,12.9 199.9,0.4 			"/>
		</defs>
		<clipPath id="SVGID_8_">
			<use xlink:href="#SVGID_7_"  style="overflow:visible;"/>
		</clipPath>
		
			<linearGradient id="SVGID_9_" gradientUnits="userSpaceOnUse" x1="-514.8074" y1="2503.6882" x2="-512.8521" y2="2503.6882" gradientTransform="matrix(23.2333 0 0 -23.2333 12115.1768 58175.5586)">
			<stop  offset="0" style="stop-color:#C4D1D6"/>
			<stop  offset="1" style="stop-color:#E7EBEB"/>
		</linearGradient>
		<rect x="154.5" y="0.4" class="st3" width="45.4" height="12.5"/>
	</g>
	<g>
		<defs>
			<polygon id="SVGID_10_" points="169.1,42.1 154.5,54.6 200,54.6 200,42.1 			"/>
		</defs>
		<clipPath id="SVGID_11_">
			<use xlink:href="#SVGID_10_"  style="overflow:visible;"/>
		</clipPath>
		
			<linearGradient id="SVGID_12_" gradientUnits="userSpaceOnUse" x1="-514.8412" y1="2502.9602" x2="-512.8858" y2="2502.9602" gradientTransform="matrix(23.2654 0 0 -23.2654 12132.4775 58280.6523)">
			<stop  offset="0" style="stop-color:#C4D1D6"/>
			<stop  offset="1" style="stop-color:#E7EBEB"/>
		</linearGradient>
		<rect x="154.5" y="42.1" class="st4" width="45.5" height="12.5"/>
	</g>
	<g>
		<defs>
			<polygon id="SVGID_13_" points="15.2,0.4 15,0.4 15,31.6 26,54.6 34.3,38.7 34.3,38.7 15.5,0.4 			"/>
		</defs>
		<clipPath id="SVGID_14_">
			<use xlink:href="#SVGID_13_"  style="overflow:visible;"/>
		</clipPath>
		
			<linearGradient id="SVGID_15_" gradientUnits="userSpaceOnUse" x1="-488.5334" y1="2357.1802" x2="-486.5779" y2="2357.1802" gradientTransform="matrix(9.8613 0 0 -9.8613 4832.5488 23272.375)">
			<stop  offset="0" style="stop-color:#C4D1D6"/>
			<stop  offset="1" style="stop-color:#E7EBEB"/>
		</linearGradient>
		<rect x="15" y="0.4" class="st5" width="19.3" height="54.2"/>
	</g>
	<polygon class="st1" points="65.9,0.4 42.5,54.6 26,54.6 50.4,0.4 	"/>
	<rect y="0.4" class="st1" width="15.5" height="54.2"/>
	<path class="st1" d="M86.2,53.2c-3,0.9-6.3,1.4-10,1.4c-15.2,0-24.7-7.7-24.7-24.4V0.4h15v29.5v1C66.6,40.1,72.6,53.2,86.2,53.2"/>
</g>
</svg>
