<?xml version="1.0" encoding="utf-8"?>
<!-- Generator: Adobe Illustrator 22.1.0, SVG Export Plug-In . SVG Version: 6.00 Build 0)  -->
<svg version="1.1" id="Layer_1" xmlns="http://www.w3.org/2000/svg" xmlns:xlink="http://www.w3.org/1999/xlink" x="0px" y="0px"
	 viewBox="0 0 680.4000244 490.7015991" style="enable-background:new 0 0 680.4000244 490.7015991;" xml:space="preserve">
<g>
	<g>
		<g>
			<path d="M0.2130329,366.0803528l12.402297-14.8548889c8.5853081,7.0865479,17.5795174,11.5853271,28.4830589,11.5853271
				c8.5853043,0,13.7641945-3.4080811,13.7641945-8.9958801v-0.2728882c0-5.3149109-3.2712288-8.0403748-19.2168007-12.1285706
				c-19.2151318-4.9068604-31.6174278-10.2217712-31.6174278-29.164856v-0.2728882
				c0-17.3082886,13.9010525-28.7559204,33.3899002-28.7559204c13.9010544,0,25.7575912,4.361084,35.4344215,12.129425
				l-10.9035416,15.8086853c-8.450119-5.8598328-16.7633781-9.4031067-24.8029251-9.4031067
				c-8.0412159,0-12.26544,3.6792908-12.26544,8.3132629v0.2720642c0,6.2695618,4.0873661,8.3132324,20.5786991,12.5382996
				c19.3519936,5.0428772,30.2538643,11.9934082,30.2538643,28.6199341v0.2720337
				c0,18.9447632-14.4451485,29.574585-35.0238495,29.574585C26.2426682,381.3449707,11.6606655,376.302948,0.2130329,366.0803528z"
				/>
			<path d="M118.2342987,339.0960388v-54.5135193h20.9876099v53.9685974c0,15.5366821,7.7675018,23.5770569,20.5786896,23.5770569
				c12.8095398,0,20.5787048-7.7683411,20.5787048-22.8952637v-54.6503906h20.9876099v53.8325806
				c0,28.8919678-16.2176208,43.0650635-41.8400269,43.0650635
				C133.9061584,381.4801636,118.2342987,367.171875,118.2342987,339.0960388z"/>
			<path d="M248.5193329,284.5825195h22.6232147l25.0766602,40.3404236l25.0766296-40.3404236h22.62323v95.3988647h-20.852417
				v-62.2818604l-26.8474426,40.7493286h-0.5457764l-26.5754089-40.3404236v61.8729553h-20.5786896V284.5825195z"/>
			<path d="M392.5702515,284.5825195h22.6231995l25.0766602,40.3404236l25.0766296-40.3404236h22.62323v95.3988647h-20.852417
				v-62.2818604l-26.8474426,40.7493286h-0.5457764l-26.5754089-40.3404236v61.8729553h-20.5786743V284.5825195z"/>
			<path d="M537.5758057,284.5825195h20.9876099v95.3988647h-20.9876099V284.5825195z"/>
			<path d="M630.383606,303.9353333h-29.0288696v-19.3528137h79.0452881v19.3528137h-29.0288696v76.046051H630.383606V303.9353333z"
				/>
		</g>
		<g>
			<path d="M195.9034576,442.0997009h19.0549011c11.1271973,0,17.8565826,6.5975342,17.8565826,16.125824v0.1318359
				c0,10.7950745-8.39505,16.3912048-18.8546295,16.3912048h-7.7958832v13.9928589h-10.2609711V442.0997009z
				 M214.2924347,465.6208496c5.1304932,0,8.1296692-3.0659485,8.1296692-7.0632019v-0.1335144
				c0-4.596405-3.1994629-7.0615234-8.3299408-7.0615234h-7.9277344v14.2582397H214.2924347z"/>
			<path d="M257.5944824,442.0997009h10.2609863v37.3136902h23.2524414v9.3280334h-33.5134277V442.0997009z"/>
			<path d="M332.0099487,441.7675781h9.4615173l19.989563,46.9738464h-10.728302l-4.2642822-10.4612732h-19.7208252
				l-4.2642822,10.4612732h-10.4612732L332.0099487,441.7675781z M342.8049927,469.2191772l-6.1969604-15.1260986
				l-6.196991,15.1260986H342.8049927z"/>
			<path d="M380.7763062,465.5540771v-0.1335144c0-13.2584839,9.993927-24.1203003,24.3189087-24.1203003
				c8.7955933,0,14.0596008,2.9324036,18.3906555,7.1966858l-6.5307922,7.5288391
				c-3.5966797-3.2645569-7.2617798-5.2640076-11.9266357-5.2640076c-7.8626404,0-13.5255127,6.5307617-13.5255127,14.5252686
				v0.1335144c0,7.9961548,5.5310364,14.658783,13.5255127,14.658783c5.33078,0,8.5953369-2.1329956,12.260437-5.4642944
				l6.5291138,6.5975342c-4.7966919,5.1304932-10.1274719,8.3282776-19.1216736,8.3282776
				C390.97052,489.540863,380.7763062,478.9460754,380.7763062,465.5540771z"/>
			<path d="M449.1950378,442.0997009h35.1807556v9.1293945h-24.9865417v9.4615173h21.9890137v9.1277466h-21.9890137v9.7936707
				h25.3203125v9.1293945h-35.5145264V442.0997009z"/>
		</g>
	</g>
	<g>
		<g>
			<path d="M0,367.2415161l12.402297-14.8548584c8.5853071,7.0865479,17.5795174,11.5852966,28.4830551,11.5852966
				c8.5853081,0,13.7641983-3.4080811,13.7641983-8.9958801v-0.2728577c0-5.3149109-3.2712288-8.0403748-19.2168007-12.1286011
				C16.2176189,337.6677856,3.8153212,332.3528748,3.8153212,313.40979v-0.2728882
				c0-17.3083191,13.9010544-28.7559509,33.3899002-28.7559509c13.9010544,0,25.7575874,4.361084,35.4344177,12.129425
				l-10.9035378,15.8087158c-8.450119-5.8598328-16.763382-9.4031067-24.8029251-9.4031067
				c-8.0412159,0-12.2654419,3.6792908-12.2654419,8.3132629v0.2720337c0,6.2695923,4.087368,8.3132629,20.578701,12.5383301
				c19.3519897,5.0428772,30.2538605,11.9933777,30.2538605,28.6199036v0.2720642
				c0,18.9447327-14.4451447,29.574585-35.0238457,29.574585C26.0296364,382.5061646,11.4476318,377.4641113,0,367.2415161z"/>
			<path d="M118.0212708,340.2572327v-54.5135193h20.9875946v53.9685974c0,15.5366516,7.7675018,23.5770264,20.5787048,23.5770264
				c12.8095398,0,20.5787048-7.7683105,20.5787048-22.8952637v-54.6503601h20.9875946v53.83255
				c0,28.8919678-16.2176056,43.0650635-41.8400116,43.0650635
				C133.6931305,382.6413269,118.0212708,368.3330383,118.0212708,340.2572327z"/>
			<path d="M248.3063049,285.7437134h22.62323l25.0766296,40.3404236l25.0766296-40.3404236h22.62323v95.3988647h-20.852417
				v-62.2818604l-26.8474426,40.7493286h-0.5457764l-26.5753784-40.3404236v61.8729553h-20.5787048V285.7437134z"/>
			<path d="M392.3572083,285.7437134h22.62323l25.0766296,40.3404236l25.0766296-40.3404236h22.62323v95.3988647h-20.852417
				v-62.2818604l-26.8474426,40.7493286h-0.5457764l-26.5753784-40.3404236v61.8729553h-20.5787048V285.7437134z"/>
			<path d="M537.362793,285.7437134h20.9876099v95.3988647H537.362793V285.7437134z"/>
			<path d="M630.1705322,305.0965271h-29.0288086v-19.3528137h79.0452271v19.3528137h-29.0288086v76.046051h-20.9876099V305.0965271
				z"/>
		</g>
		<g>
			<path d="M195.6904297,443.2608948h19.0549011c11.127182,0,17.8565674,6.5975342,17.8565674,16.125824v0.1318359
				c0,10.7950439-8.3950348,16.3912048-18.8546295,16.3912048h-7.7958679v13.9928284h-10.2609711V443.2608948z
				 M214.0794067,466.7820129c5.1304779,0,8.1296692-3.0659485,8.1296692-7.0631714v-0.1335144
				c0-4.5964355-3.1994629-7.0615234-8.3299561-7.0615234h-7.9277191v14.2582092H214.0794067z"/>
			<path d="M257.3814697,443.2608948h10.2609558v37.3136902h23.2524414v9.3280029h-33.5133972V443.2608948z"/>
			<path d="M331.7969055,442.9287415h9.4615479l19.9895325,46.9738464h-10.728302l-4.2642822-10.4612427h-19.7208252
				l-4.2642822,10.4612427H311.809021L331.7969055,442.9287415z M342.59198,470.3803711l-6.196991-15.1260986l-6.1969604,15.1260986
				H342.59198z"/>
			<path d="M380.5632629,466.715271v-0.1335449c0-13.2584839,9.993927-24.1203003,24.3189087-24.1203003
				c8.7955933,0,14.0596008,2.9324341,18.3906555,7.1967163l-6.5307922,7.5288391
				c-3.5966797-3.2645569-7.2617798-5.2640076-11.9266052-5.2640076c-7.8626404,0-13.5255432,6.5307617-13.5255432,14.525238
				v0.1335144c0,7.9961548,5.5310364,14.658783,13.5255432,14.658783c5.3307495,0,8.5953064-2.1329651,12.2604065-5.4642639
				l6.5291138,6.5975342c-4.7966919,5.1304626-10.1274414,8.3282776-19.1216736,8.3282776
				C390.7574768,490.7020569,380.5632629,480.1072693,380.5632629,466.715271z"/>
			<path d="M448.9820251,443.2608948h35.1807251v9.1293945H459.176239v9.4615173h21.9889832v9.1277466H459.176239v9.7936401
				h25.3203125v9.1293945h-35.5145264V443.2608948z"/>
		</g>
	</g>
	<g>
		<path d="M340.1140137,206.5326538c-15.0730591,0.0014191-30.028656-6.3502808-40.3029175-18.6077728
			c-16.2295837-19.365097-15.5557861-47.9668579,1.5684814-66.5321655c1.7651978-1.9152756,3.7017212-3.717308,5.754303-5.3579636
			l8.1452332,10.1921616c-1.5401306,1.2301407-2.9896851,2.5791931-4.3104248,4.0103302
			c-12.8973389,13.9830933-13.3842773,34.7198944-1.1579285,49.3074188
			c13.647583,16.2862244,38.3352661,18.6856384,55.0277405,5.3409729
			c14.2081604-11.3614197,18.3402405-31.0875092,9.8227234-46.9065857
			c-0.7304382-1.3575439-4.7096558-6.9462433-7.9768066-11.3472748l-42.4121399-58.057106l10.5347595-7.6950798
			l42.3809814,58.0160484c1.6958618,2.2819138,7.444519,10.0845718,8.959198,12.8973312
			c11.5057983,21.3709869,5.9708862,47.9838562-13.1620483,63.2819977
			C363.3464966,202.7799683,351.6948853,206.53125,340.1140137,206.5326538z"/>
	</g>
	<g>
		<path d="M345.379303,145.651474l-42.3795776-58.0160446c-1.6958618-2.2819138-7.4431152-10.0831604-8.959198-12.8959198
			c-11.5086365-21.3723946-5.9709167-47.9866791,13.1634521-63.2834167
			c22.1806946-17.7315292,55.0037231-14.5238304,73.1712341,7.1500854
			c16.2310181,19.3651047,15.5572205,47.968277-1.5684509,66.5321732c-1.7638245,1.9124451-3.6989136,3.7144775-5.7514954,5.3565445
			l-8.1480713-10.1893311c1.5401611-1.2315521,2.9911194-2.582016,4.3104553-4.0117493
			c12.8987427-13.983078,13.3856812-34.719883,1.1579285-49.3074112
			c-13.6504211-16.2890568-38.3381042-18.681385-55.0249329-5.3409767
			c-14.2109985,11.3600121-18.3430481,31.087513-9.825531,46.9065895c0.7304382,1.3561249,4.7110596,6.9462433,7.9782104,11.3472748
			l42.4107056,58.0570984L345.379303,145.651474z"/>
	</g>
</g>
</svg>
