<?xml version="1.0" encoding="utf-8"?>
<!-- Generator: Adobe Illustrator 16.0.0, SVG Export Plug-In . SVG Version: 6.00 Build 0)  -->
<!DOCTYPE svg PUBLIC "-//W3C//DTD SVG 1.1//EN" "http://www.w3.org/Graphics/SVG/1.1/DTD/svg11.dtd">
<svg version="1.1" id="Layer_1" xmlns="http://www.w3.org/2000/svg" xmlns:xlink="http://www.w3.org/1999/xlink" x="0px" y="0px"
	 width="60.728px" height="58.024px" viewBox="0 0 60.728 58.024" enable-background="new 0 0 60.728 58.024" xml:space="preserve">
<g>
	<g>
		<path fill="#0fa9e5" d="M59.913,10.689c-2.172,0.96-4.492,1.614-6.958,1.913c2.51-1.503,4.423-3.893,5.324-6.701
			c-2.343,1.38-4.92,2.384-7.693,2.935c-2.22-2.346-5.371-3.828-8.858-3.828c-6.684,0-12.131,5.421-12.131,12.125
			c0,0.94,0.123,1.871,0.322,2.753C19.845,19.387,10.906,14.558,4.932,7.228C3.875,9,3.286,11.096,3.286,13.325
			c0,4.2,2.141,7.916,5.389,10.08c-1.979-0.067-3.849-0.609-5.491-1.517v0.155c0,5.872,4.185,10.772,9.731,11.884
			c-1.019,0.272-2.091,0.419-3.192,0.419c-0.787,0-1.54-0.07-2.284-0.217c1.535,4.809,6.027,8.32,11.322,8.432
			c-4.146,3.236-9.38,5.162-15.059,5.162c-0.987,0-1.945-0.043-2.888-0.169c5.365,3.452,11.729,5.462,18.579,5.462
			c22.311,0,34.505-18.468,34.505-34.493l-0.044-1.573C56.241,15.244,58.297,13.114,59.913,10.689z"/>
	</g>
</g>
</svg>
